<svg width="24" height="24" viewBox="0 0 24 24" fill="none" xmlns="http://www.w3.org/2000/svg">
<path d="M3.84547 19.4856L10.1075 13.2236C9.68147 12.7236 9.3518 12.1486 9.11847 11.4986C8.88513 10.8486 8.76847 10.1953 8.76847 9.53859C8.76847 7.93726 9.3228 6.58193 10.4315 5.47259C11.5401 4.36326 12.8951 3.80859 14.4965 3.80859C16.0978 3.80859 17.4535 4.36259 18.5635 5.47059C19.6735 6.57859 20.2291 7.93326 20.2305 9.53459C20.2318 11.1359 19.6771 12.4919 18.5665 13.6026C17.4558 14.7133 16.1001 15.2686 14.4995 15.2686C13.8048 15.2686 13.1325 15.1456 12.4825 14.8996C11.8325 14.6536 11.2765 14.3303 10.8145 13.9296L4.55347 20.1916L3.84547 19.4856ZM9.76947 9.53959C9.76947 10.8663 10.2261 11.9863 11.1395 12.8996C12.0528 13.8129 13.1731 14.2696 14.5005 14.2696C15.8278 14.2696 16.9478 13.8129 17.8605 12.8996C18.7731 11.9863 19.2298 10.8663 19.2305 9.53959C19.2311 8.21293 18.7745 7.09259 17.8605 6.17859C16.9465 5.26459 15.8265 4.80793 14.5005 4.80859C13.1745 4.80926 12.0545 5.26593 11.1405 6.17859C10.2265 7.09126 9.7698 8.21126 9.77047 9.53859" fill="black"/>
</svg>
